<?xml version="1.0" encoding="UTF-8" standalone="no"?>
<svg xmlns="http://www.w3.org/2000/svg" version="1.2" baseProfile="tiny" viewBox="0.00 0.00 512.00 512.00">
<g stroke-width="2.00" fill="none" stroke-linecap="butt">
<path stroke="#63b07f" vector-effect="non-scaling-stroke" d="
  M 452.17 95.92
  Q 451.64 95.93 451.33 97.63
  Q 451.24 98.12 450.75 98.12
  Q 257.55 98.12 64.36 98.12
  Q 63.99 98.12 64.12 98.46
  Q 64.14 98.51 64.14 98.56
  Q 64.08 99.04 63.54 99.12
  Q 60.15 99.67 58.62 98.08"
/>
<path stroke="#5ead8e" vector-effect="non-scaling-stroke" d="
  M 469.21 176.05
  Q 468.81 176.72 468.76 177.68
  A 0.14 0.14 0.0 0 1 468.49 177.72
  L 468.40 177.47
  Q 468.27 177.12 467.90 177.12
  L 385.45 177.24"
/>
<path stroke="#5ead8e" vector-effect="non-scaling-stroke" d="
  M 248.54 181.38
  L 202.80 181.12
  Q 201.54 181.11 202.21 180.05
  Q 202.58 179.46 202.59 178.68"
/>
<path stroke="#5ead8e" vector-effect="non-scaling-stroke" d="
  M 121.56 185.89
  L 43.50 185.91
  A 0.57 0.57 0.0 0 1 42.94 185.25
  Q 43.06 184.41 42.76 183.49"
/>
<path stroke="#5bab9b" vector-effect="non-scaling-stroke" d="
  M 469.24 242.72
  L 468.95 240.60
  Q 468.89 240.10 468.38 240.10
  L 43.94 240.10
  Q 43.40 240.10 43.40 240.64
  Q 43.39 241.91 42.74 242.74"
/>
<path stroke="#58a9a6" vector-effect="non-scaling-stroke" d="
  M 469.25 293.64
  Q 468.77 293.80 468.27 294.49
  Q 467.98 294.88 467.49 294.88
  L 446.24 294.88
  Q 445.86 294.88 445.49 294.75
  Q 445.18 294.64 444.86 294.64
  Q 412.12 294.63 379.22 294.64
  Q 379.12 294.64 379.06 294.56
  Q 379.03 294.52 379.00 294.48
  Q 378.97 294.44 378.92 294.44
  Q 316.00 294.21 253.08 294.60
  Q 252.81 294.60 252.57 294.74
  Q 252.41 294.83 252.25 294.83
  Q 232.17 294.88 212.38 294.90"
/>
<path stroke="#58a9a6" vector-effect="non-scaling-stroke" d="
  M 187.03 298.27
  Q 186.67 297.10 187.57 296.80
  Q 187.91 296.69 187.89 296.32
  Q 187.88 296.17 187.75 296.04
  Q 187.58 295.88 187.20 295.88
  Q 115.07 295.92 42.73 295.84"
/>
<path stroke="#54a7b2" vector-effect="non-scaling-stroke" d="
  M 469.20 348.84
  Q 429.36 348.93 389.14 348.89
  A 0.86 0.85 -16.1 0 1 388.42 348.50
  Q 388.28 348.29 388.42 348.08
  A 0.05 0.05 0.0 0 1 388.50 348.08
  Q 388.60 348.26 388.79 348.22
  Q 388.98 348.18 389.03 347.99
  Q 389.08 347.77 389.15 347.57
  Q 389.29 347.19 388.88 347.26
  Q 388.74 347.29 388.63 347.18
  Q 388.47 347.03 388.70 347.01
  Q 388.95 346.99 389.01 346.76
  Q 389.09 346.43 388.71 346.18"
/>
<path stroke="#54a7b2" vector-effect="non-scaling-stroke" d="
  M 249.32 347.47
  Q 248.97 348.88 247.50 348.88
  Q 214.93 348.95 181.82 348.84"
/>
<path stroke="#54a7b2" vector-effect="non-scaling-stroke" d="
  M 123.09 346.49
  Q 122.22 346.89 123.03 347.57
  Q 124.63 348.89 122.55 348.90
  L 42.75 348.99"
/>
<path stroke="#50a4c1" vector-effect="non-scaling-stroke" d="
  M 457.54 405.86
  Q 456.83 405.82 456.67 405.34
  Q 456.58 405.07 456.75 404.85
  Q 456.85 404.72 456.88 404.60
  Q 456.97 404.13 456.49 404.13
  Q 322.65 403.69 184.82 403.92
  C 181.95 403.92 179.18 404.38 176.32 403.88
  C 175.42 403.72 174.80 404.15 173.92 404.15
  Q 134.35 404.11 94.79 403.79
  Q 94.69 403.79 94.63 403.86
  Q 94.55 403.97 94.43 404.03
  Q 94.25 404.12 94.06 404.12
  Q 74.33 403.87 53.90 404.46"
/>
</g>
<path fill="#65b176" d="
  M 452.17 95.92
  Q 451.64 95.93 451.33 97.63
  Q 451.24 98.12 450.75 98.12
  Q 257.55 98.12 64.36 98.12
  Q 63.99 98.12 64.12 98.46
  Q 64.14 98.51 64.14 98.56
  Q 64.08 99.04 63.54 99.12
  Q 60.15 99.67 58.62 98.08
  C 71.73 74.49 92.77 58.13 118.28 49.85
  C 134.87 44.46 151.75 42.72 169.23 42.71
  Q 260.64 42.68 349.55 42.75
  Q 361.88 42.76 377.61 45.71
  C 408.91 51.58 435.78 68.23 452.17 95.92
  Z"
/>
<path fill="#60ae87" d="
  M 452.17 95.92
  C 466.12 120.35 470.37 148.22 469.21 176.05
  Q 468.81 176.72 468.76 177.68
  A 0.14 0.14 0.0 0 1 468.49 177.72
  L 468.40 177.47
  Q 468.27 177.12 467.90 177.12
  L 385.45 177.24
  Q 382.92 175.09 379.34 173.98
  Q 376.85 173.22 372.58 173.21
  Q 318.67 173.19 264.74 173.20
  Q 253.65 173.21 248.54 181.38
  L 202.80 181.12
  Q 201.54 181.11 202.21 180.05
  Q 202.58 179.46 202.59 178.68
  Q 206.55 174.71 210.60 170.63
  Q 214.63 166.57 215.85 163.99
  C 219.02 157.27 216.86 148.15 210.64 144.27
  Q 198.92 136.98 188.80 147.13
  Q 172.52 163.48 153.84 182.14
  Q 153.39 182.59 152.94 182.15
  C 150.77 180.02 148.68 177.47 146.11 175.91
  C 136.19 169.87 124.58 174.80 121.56 185.89
  L 43.50 185.91
  A 0.57 0.57 0.0 0 1 42.94 185.25
  Q 43.06 184.41 42.76 183.49
  Q 42.57 171.37 42.88 159.26
  Q 43.56 133.43 52.74 110.24
  Q 54.87 104.86 58.62 98.08
  Q 60.15 99.67 63.54 99.12
  Q 64.08 99.04 64.14 98.56
  Q 64.14 98.51 64.12 98.46
  Q 63.99 98.12 64.36 98.12
  Q 257.55 98.12 450.75 98.12
  Q 451.24 98.12 451.33 97.63
  Q 451.64 95.93 452.17 95.92
  Z"
/>
<path fill="#5cac95" d="
  M 469.21 176.05
  L 469.24 242.72
  L 468.95 240.60
  Q 468.89 240.10 468.38 240.10
  L 43.94 240.10
  Q 43.40 240.10 43.40 240.64
  Q 43.39 241.91 42.74 242.74
  L 42.76 183.49
  Q 43.06 184.41 42.94 185.25
  A 0.57 0.57 0.0 0 0 43.50 185.91
  L 121.56 185.89
  C 120.50 192.03 122.34 196.97 126.80 201.33
  Q 135.21 209.55 142.01 216.48
  C 148.19 222.78 158.26 222.83 164.56 216.56
  Q 183.49 197.73 202.59 178.68
  Q 202.58 179.46 202.21 180.05
  Q 201.54 181.11 202.80 181.12
  L 248.54 181.38
  Q 243.51 193.03 251.67 200.82
  C 254.84 203.84 258.96 205.27 263.28 205.26
  Q 319.92 205.20 374.63 205.24
  C 382.54 205.25 388.90 199.59 390.46 191.75
  Q 391.93 184.37 385.45 177.24
  L 467.90 177.12
  Q 468.27 177.12 468.40 177.47
  L 468.49 177.72
  A 0.14 0.14 0.0 0 0 468.76 177.68
  Q 468.81 176.72 469.21 176.05
  Z"
/>
<path fill="#59aaa1" d="
  M 469.24 242.72
  L 469.25 293.64
  Q 468.77 293.80 468.27 294.49
  Q 467.98 294.88 467.49 294.88
  L 446.24 294.88
  Q 445.86 294.88 445.49 294.75
  Q 445.18 294.64 444.86 294.64
  Q 412.12 294.63 379.22 294.64
  Q 379.12 294.64 379.06 294.56
  Q 379.03 294.52 379.00 294.48
  Q 378.97 294.44 378.92 294.44
  Q 316.00 294.21 253.08 294.60
  Q 252.81 294.60 252.57 294.74
  Q 252.41 294.83 252.25 294.83
  Q 232.17 294.88 212.38 294.90
  Q 202.79 287.33 193.02 293.01
  C 190.79 294.31 188.91 296.36 187.03 298.27
  Q 186.67 297.10 187.57 296.80
  Q 187.91 296.69 187.89 296.32
  Q 187.88 296.17 187.75 296.04
  Q 187.58 295.88 187.20 295.88
  Q 115.07 295.92 42.73 295.84
  L 42.74 242.74
  Q 43.39 241.91 43.40 240.64
  Q 43.40 240.10 43.94 240.10
  L 468.38 240.10
  Q 468.89 240.10 468.95 240.60
  L 469.24 242.72
  Z"
/>
<path fill="#56a8ab" d="
  M 469.25 293.64
  L 469.20 348.84
  Q 429.36 348.93 389.14 348.89
  A 0.86 0.85 -16.1 0 1 388.42 348.50
  Q 388.28 348.29 388.42 348.08
  A 0.05 0.05 0.0 0 1 388.50 348.08
  Q 388.60 348.26 388.79 348.22
  Q 388.98 348.18 389.03 347.99
  Q 389.08 347.77 389.15 347.57
  Q 389.29 347.19 388.88 347.26
  Q 388.74 347.29 388.63 347.18
  Q 388.47 347.03 388.70 347.01
  Q 388.95 346.99 389.01 346.76
  Q 389.09 346.43 388.71 346.18
  C 394.31 334.77 386.54 322.52 374.11 322.51
  Q 322.64 322.48 262.74 322.53
  C 249.76 322.54 242.51 336.57 249.32 347.47
  Q 248.97 348.88 247.50 348.88
  Q 214.93 348.95 181.82 348.84
  Q 197.37 333.18 212.51 318.01
  Q 217.25 313.27 217.21 306.50
  Q 217.17 299.51 212.38 294.90
  Q 232.17 294.88 252.25 294.83
  Q 252.41 294.83 252.57 294.74
  Q 252.81 294.60 253.08 294.60
  Q 316.00 294.21 378.92 294.44
  Q 378.97 294.44 379.00 294.48
  Q 379.03 294.52 379.06 294.56
  Q 379.12 294.64 379.22 294.64
  Q 412.12 294.63 444.86 294.64
  Q 445.18 294.64 445.49 294.75
  Q 445.86 294.88 446.24 294.88
  L 467.49 294.88
  Q 467.98 294.88 468.27 294.49
  Q 468.77 293.80 469.25 293.64
  Z"
/>
<path fill="#56a8ab" d="
  M 42.73 295.84
  Q 115.07 295.92 187.20 295.88
  Q 187.58 295.88 187.75 296.04
  Q 187.88 296.17 187.89 296.32
  Q 187.91 296.69 187.57 296.80
  Q 186.67 297.10 187.03 298.27
  L 153.85 331.44
  Q 153.35 331.93 152.86 331.43
  C 150.95 329.46 149.05 327.39 146.90 325.81
  C 138.53 319.71 126.95 322.81 122.67 332.00
  Q 119.61 338.56 123.09 346.49
  Q 122.22 346.89 123.03 347.57
  Q 124.63 348.89 122.55 348.90
  L 42.75 348.99
  L 42.73 295.84
  Z"
/>
<path fill="#52a5b9" d="
  M 123.09 346.49
  Q 130.90 354.84 139.15 363.08
  Q 144.37 368.31 147.30 369.41
  Q 153.60 371.79 159.80 369.24
  Q 162.61 368.09 168.65 361.98
  Q 175.32 355.23 181.82 348.84
  Q 214.93 348.95 247.50 348.88
  Q 248.97 348.88 249.32 347.47
  C 252.34 351.55 257.09 354.55 262.16 354.55
  Q 319.42 354.50 374.55 354.55
  C 380.61 354.56 385.65 351.41 388.71 346.18
  Q 389.09 346.43 389.01 346.76
  Q 388.95 346.99 388.70 347.01
  Q 388.47 347.03 388.63 347.18
  Q 388.74 347.29 388.88 347.26
  Q 389.29 347.19 389.15 347.57
  Q 389.08 347.77 389.03 347.99
  Q 388.98 348.18 388.79 348.22
  Q 388.60 348.26 388.50 348.08
  A 0.05 0.05 0.0 0 0 388.42 348.08
  Q 388.28 348.29 388.42 348.50
  A 0.86 0.85 -16.1 0 0 389.14 348.89
  Q 429.36 348.93 469.20 348.84
  Q 469.18 378.30 457.54 405.86
  Q 456.83 405.82 456.67 405.34
  Q 456.58 405.07 456.75 404.85
  Q 456.85 404.72 456.88 404.60
  Q 456.97 404.13 456.49 404.13
  Q 322.65 403.69 184.82 403.92
  C 181.95 403.92 179.18 404.38 176.32 403.88
  C 175.42 403.72 174.80 404.15 173.92 404.15
  Q 134.35 404.11 94.79 403.79
  Q 94.69 403.79 94.63 403.86
  Q 94.55 403.97 94.43 404.03
  Q 94.25 404.12 94.06 404.12
  Q 74.33 403.87 53.90 404.46
  Q 43.25 379.66 42.75 348.99
  L 122.55 348.90
  Q 124.63 348.89 123.03 347.57
  Q 122.22 346.89 123.09 346.49
  Z"
/>
<path fill="#4da3c8" d="
  M 457.54 405.86
  Q 437.47 448.54 392.11 462.56
  C 375.73 467.63 360.22 469.29 342.82 469.29
  Q 252.17 469.30 163.84 469.21
  C 140.32 469.18 115.71 463.89 95.67 452.04
  Q 67.91 435.63 53.90 404.46
  Q 74.33 403.87 94.06 404.12
  Q 94.25 404.12 94.43 404.03
  Q 94.55 403.97 94.63 403.86
  Q 94.69 403.79 94.79 403.79
  Q 134.35 404.11 173.92 404.15
  C 174.80 404.15 175.42 403.72 176.32 403.88
  C 179.18 404.38 181.95 403.92 184.82 403.92
  Q 322.65 403.69 456.49 404.13
  Q 456.97 404.13 456.88 404.60
  Q 456.85 404.72 456.75 404.85
  Q 456.58 405.07 456.67 405.34
  Q 456.83 405.82 457.54 405.86
  Z"
/>
</svg>
